<svg width="1200" height="800" viewBox="0 0 1200 800" fill="none" xmlns="http://www.w3.org/2000/svg">
  <rect width="1200" height="800" fill="#EEF2F5"/>
  <rect x="56" y="56" width="1088" height="688" rx="20" fill="#FFFFFF" stroke="#C8D2DA" stroke-width="2"/>
  <rect x="56" y="56" width="1088" height="78" rx="20" fill="#1E2A36"/>
  <rect x="56" y="114" width="1088" height="20" fill="#1E2A36"/>
  <text x="92" y="104" fill="#FFFFFF" font-size="34" font-family="Arial, sans-serif" font-weight="700">鑽孔 / 攻牙加工</text>
  <text x="810" y="104" fill="#B9C6D2" font-size="22" font-family="Arial, sans-serif">佑達金屬有限公司</text>

  <rect x="108" y="188" width="988" height="438" rx="18" fill="#F7F9FB" stroke="#D4DCE3" stroke-width="2"/>
  <rect x="270" y="206" width="132" height="294" rx="14" fill="#C7D1D8" stroke="#8A9BA9" stroke-width="2"/>
  <rect x="500" y="208" width="118" height="188" rx="14" fill="#B7C3CD" stroke="#798B9B" stroke-width="2"/>
  <path d="M560 255V500" stroke="#324250" stroke-width="12" stroke-linecap="round"/>
  <path d="M560 390L526 458H594L560 390Z" fill="#FF8A00"/>
  <circle cx="794" cy="390" r="78" fill="#D9E1E7" stroke="#8797A6" stroke-width="4"/>
  <circle cx="794" cy="390" r="26" fill="#526270"/>
  <path d="M794 312V468" stroke="#7F909F" stroke-width="5" stroke-dasharray="8 10"/>
  <path d="M716 390H872" stroke="#7F909F" stroke-width="5" stroke-dasharray="8 10"/>
  <rect x="716" y="510" width="232" height="58" rx="12" fill="#243341"/>
  <text x="760" y="547" fill="#FFFFFF" font-size="24" font-family="Arial, sans-serif">牙紋與孔位控制</text>

  <rect x="120" y="654" width="300" height="56" rx="10" fill="#F3F6F8" stroke="#D1D9E0"/>
  <rect x="450" y="654" width="300" height="56" rx="10" fill="#F3F6F8" stroke="#D1D9E0"/>
  <rect x="780" y="654" width="300" height="56" rx="10" fill="#F3F6F8" stroke="#D1D9E0"/>
  <text x="170" y="690" fill="#314150" font-size="24" font-family="Arial, sans-serif">孔徑 / 孔深規劃</text>
  <text x="485" y="690" fill="#314150" font-size="24" font-family="Arial, sans-serif">牙規與底孔搭配</text>
  <text x="825" y="690" fill="#314150" font-size="24" font-family="Arial, sans-serif">裝配穩定性提升</text>

  <rect x="916" y="188" width="180" height="58" rx="10" fill="#243341"/>
  <text x="934" y="225" fill="#FFFFFF" font-size="24" font-family="Arial, sans-serif">孔位 / 牙紋製程</text>
</svg>
