<svg width="1200" height="800" viewBox="0 0 1200 800" fill="none" xmlns="http://www.w3.org/2000/svg">
  <rect width="1200" height="800" fill="#EEF2F5"/>
  <rect x="56" y="56" width="1088" height="688" rx="20" fill="#FFFFFF" stroke="#C8D2DA" stroke-width="2"/>
  <rect x="56" y="56" width="1088" height="78" rx="20" fill="#1E2A36"/>
  <rect x="56" y="114" width="1088" height="20" fill="#1E2A36"/>
  <text x="92" y="104" fill="#FFFFFF" font-size="34" font-family="Arial, sans-serif" font-weight="700">CNC 車床加工</text>
  <text x="810" y="104" fill="#B9C6D2" font-size="22" font-family="Arial, sans-serif">佑達金屬有限公司</text>

  <rect x="102" y="188" width="996" height="438" rx="18" fill="#F7F9FB" stroke="#D4DCE3" stroke-width="2"/>
  <rect x="154" y="256" width="208" height="200" rx="12" fill="#D8E0E6" stroke="#98A7B5" stroke-width="2"/>
  <circle cx="258" cy="356" r="72" fill="#A9B7C4" stroke="#596B7B" stroke-width="5"/>
  <circle cx="258" cy="356" r="26" fill="#53616F"/>
  <rect x="388" y="334" width="186" height="42" rx="12" fill="#60717F"/>
  <rect x="574" y="286" width="324" height="140" rx="14" fill="#C8D1D9" stroke="#8798A7" stroke-width="2"/>
  <rect x="556" y="474" width="406" height="30" rx="10" fill="#6D7D8C"/>
  <rect x="884" y="308" width="92" height="98" rx="10" fill="#AEB9C4" stroke="#7F919F" stroke-width="2"/>
  <path d="M362 356H388" stroke="#FF8A00" stroke-width="10" stroke-linecap="round"/>
  <path d="M974 356H1018" stroke="#FF8A00" stroke-width="10" stroke-linecap="round"/>
  <path d="M146 548H1056" stroke="#C7D1D9" stroke-width="2"/>

  <rect x="120" y="654" width="300" height="56" rx="10" fill="#F3F6F8" stroke="#D1D9E0"/>
  <rect x="450" y="654" width="300" height="56" rx="10" fill="#F3F6F8" stroke="#D1D9E0"/>
  <rect x="780" y="654" width="300" height="56" rx="10" fill="#F3F6F8" stroke="#D1D9E0"/>
  <text x="154" y="690" fill="#314150" font-size="24" font-family="Arial, sans-serif">適用軸心 / 套筒 / 圓件</text>
  <text x="485" y="690" fill="#314150" font-size="24" font-family="Arial, sans-serif">穩定尺寸與同心度</text>
  <text x="834" y="690" fill="#314150" font-size="24" font-family="Arial, sans-serif">量產效率高</text>

  <rect x="930" y="188" width="168" height="58" rx="10" fill="#243341"/>
  <text x="958" y="225" fill="#FFFFFF" font-size="24" font-family="Arial, sans-serif">車削製程</text>
</svg>
